<svg viewBox="0 0 1000 1000" fill="none" xmlns="http://www.w3.org/2000/svg">
<path d="M449.017 138C398.141 167.042 385.03 188 402.031 237L390.03 243C362.027 181 378.03 147 449.026 113C472.02 101.988 480.025 95 499.986 74C520.025 95 528.029 101.993 551.017 113C622.026 147 636.027 181 606.031 243L596.031 237C611.03 188 600.031 167 551.017 138C537.15 129.796 520.031 123 499.986 105C480.031 123 463.031 130 449.017 138Z" fill="#AF44B8" stroke="#AF44B8"/>
<path d="M596.002 237H403.002C386.894 188.376 397.428 166.158 455.504 135C474.004 126 483.969 120.178 500.002 106C517.603 120.059 528.623 127.377 551.002 139C598.263 167.028 610.527 187.619 596.002 237Z" fill="#E1A9EE" stroke="#E1A9EE"/>
<path d="M720.169 208.178C663.658 192.74 639.568 198.289 616.941 244.958L604.213 240.715C628.252 177.073 663.609 164.347 737.853 190.507C761.899 198.98 772.501 199.699 801.464 198.964C800.785 227.984 801.5 238.588 809.971 262.626C836.141 336.878 822 370.82 756.949 393.451L754.12 382.137C799.374 358.095 806.446 335.468 792.294 280.303C788.29 264.697 780.99 247.787 779.544 220.884C752.706 219.502 735.735 212.431 720.169 208.178Z" fill="#AF44B8" stroke="#AF44B8"/>
<path d="M754.098 382.115L617.626 245.643C640.618 199.871 663.778 191.609 726.876 210.643C746.321 217.36 757.484 220.29 778.846 221.602C781.351 243.988 783.969 256.956 791.574 280.999C805.175 334.236 799.287 357.468 754.098 382.115Z" fill="#E1A9EE" stroke="#E1A9EE"/>
<path d="M863 448.017C833.958 397.141 813 384.03 764 401.031L758 389.03C820 361.027 854 377.03 888 448.026C899.012 471.02 906 479.025 927 498.986C906 519.025 899.007 527.029 888 550.017C854 621.026 820 635.027 758 605.031L764 595.031C813 610.03 834 599.031 863 550.017C871.204 536.15 878 519.031 896 498.986C878 479.031 871 462.031 863 448.017Z" fill="#AF44B8" stroke="#AF44B8"/>
<path d="M764 595V402C812.624 385.892 834.842 396.427 866 454.502C875 473.002 880.822 482.967 895 499C880.941 516.601 873.623 527.621 862 550C833.972 597.261 813.381 609.526 764 595Z" fill="#E1A9EE" stroke="#E1A9EE"/>
<path d="M791.779 720.17C807.217 663.659 801.668 639.569 754.999 616.942L759.242 604.214C822.884 628.253 835.61 663.61 809.45 737.854C800.977 761.9 800.258 772.502 800.993 801.465C771.974 800.786 761.369 801.501 737.331 809.972C663.079 836.142 629.137 822.001 606.506 756.95L617.82 754.121C641.862 799.375 664.489 806.447 719.654 792.295C735.26 788.291 752.17 780.991 779.073 779.545C780.455 752.707 787.526 735.736 791.779 720.17Z" fill="#AF44B8" stroke="#AF44B8"/>
<path d="M617.843 754.099L754.315 617.627C800.087 640.62 808.349 663.779 789.315 726.877C782.598 746.322 779.668 757.486 778.357 778.848C755.97 781.352 743.003 783.97 718.96 791.576C665.722 805.176 642.49 799.288 617.843 754.099Z" fill="#E1A9EE" stroke="#E1A9EE"/>
<path d="M550.874 859C601.75 829.958 614.86 809 597.859 760L609.86 754C637.863 816 621.861 850 550.865 884C527.871 895.012 519.865 902 499.905 923C479.865 902 471.861 895.007 448.874 884C377.865 850 363.863 816 393.859 754L403.859 760C388.86 809 399.859 830 448.874 859C462.74 867.204 479.859 874 499.905 892C519.859 874 536.859 867 550.874 859Z" fill="#AF44B8" stroke="#AF44B8"/>
<path d="M403.889 760L596.889 760C612.997 808.624 602.462 830.842 544.387 862C525.887 871 515.922 876.822 499.889 891C482.288 876.941 471.267 869.623 448.889 858C401.627 829.972 389.363 809.381 403.889 760Z" fill="#E1A9EE" stroke="#E1A9EE"/>
<path d="M207.178 279.787C191.74 336.297 197.289 360.387 243.958 383.014L239.715 395.743C176.073 371.703 163.347 336.346 189.507 262.103C197.98 238.057 198.699 227.455 197.964 198.491C226.984 199.171 237.588 198.456 261.626 189.984C335.878 163.815 369.82 177.956 392.451 243.007L381.137 245.835C357.095 200.581 334.468 193.51 279.303 207.662C263.697 211.666 246.787 218.965 219.884 220.412C218.502 247.25 211.431 264.22 207.178 279.787Z" fill="#AF44B8" stroke="#AF44B8"/>
<path d="M381.114 245.858L244.642 382.329C198.87 359.337 190.608 336.178 209.642 273.08C216.359 253.634 219.289 242.471 220.6 221.109C242.987 218.604 255.954 215.986 279.997 208.381C333.235 194.781 356.467 200.669 381.114 245.858Z" fill="#E1A9EE" stroke="#E1A9EE"/>
<path d="M138 550.872C167.042 601.748 188 614.859 237 597.858L243 609.859C181 637.862 147 621.859 113 550.864C101.988 527.869 95 519.864 74 499.903C95 479.864 101.993 471.86 113 448.872C147 377.863 181 363.862 243 393.858L237 403.858C188 388.859 167 399.858 138 448.872C129.796 462.739 123 479.858 105 499.903C123 519.858 130 536.858 138 550.872Z" fill="#AF44B8" stroke="#AF44B8"/>
<path d="M237 403.889V596.889C188.376 612.997 166.158 602.463 135 544.387C126 525.887 120.178 515.922 106 499.889C120.059 482.288 127.377 471.268 139 448.889C167.028 401.628 187.619 389.364 237 403.889Z" fill="#E1A9EE" stroke="#E1A9EE"/>
<path d="M279.788 791.778C336.299 807.217 360.389 801.668 383.016 754.999L395.744 759.242C371.705 822.884 336.348 835.61 262.104 809.45C238.058 800.977 227.456 800.258 198.493 800.993C199.172 771.973 198.457 761.369 189.986 737.331C163.816 663.079 177.957 629.136 243.008 606.506L245.837 617.82C200.583 641.862 193.511 664.489 207.663 719.653C211.667 735.26 218.967 752.17 220.413 779.072C247.251 780.454 264.222 787.525 279.788 791.778Z" fill="#AF44B8" stroke="#AF44B8"/>
<path d="M245.859 617.842L382.331 754.314C359.339 800.086 336.179 808.347 273.081 789.314C253.636 782.596 242.473 779.667 221.111 778.355C218.606 755.968 215.988 743.001 208.383 718.958C194.782 665.721 200.67 642.489 245.859 617.842Z" fill="#E1A9EE" stroke="#E1A9EE"/>
<circle cx="500.5" cy="499.5" r="279" fill="#844114" stroke="#844114"/>
<circle cx="500.5" cy="499.5" r="241" fill="#D38E41" stroke="#844114"/>
<circle cx="500.5" cy="499.5" r="57" stroke="#844114"/>
<path d="M513 444C504 442 496 442 487 444C487 422 482 409 467 387C486 344 489 315 481 259.5C496 258.5 504 258.5 519 259.5C511 315 514 344 531 387C518 409 513 422 513 444Z" fill="#AC6B2A" stroke="#AC6B2A"/>
<path d="M513 556C504 558 496 558 487 556C487 578 482 591 467 613C486 656 489 685 481 740.5C496 741.5 504 741.5 519 740.5C511 685 514 656 531 613C518 591 513 578 513 556Z" fill="#AC6B2A" stroke="#AC6B2A"/>
<path d="M445.25 487C443.25 496 443.25 504 445.25 513C423.25 513 410.25 518 388.25 533C345.25 514 316.25 511 260.75 519C259.75 504 259.75 496 260.75 481C316.25 489 345.25 486 388.25 469C410.25 482 423.25 487 445.25 487Z" fill="#AC6B2A" stroke="#AC6B2A"/>
<path d="M470.518 450.72C462.74 455.669 457.083 461.326 452.134 469.104C436.577 453.548 423.849 447.891 397.686 442.941C380.716 399.101 362.331 376.473 317.43 342.886C327.329 331.572 332.986 325.915 344.3 316.016C377.887 360.917 400.515 379.302 442.941 397.686C449.305 422.435 454.962 435.163 470.518 450.72Z" fill="#AC6B2A" stroke="#AC6B2A"/>
<path d="M451.719 529.728C456.668 537.506 462.325 543.163 470.103 548.113C454.547 563.669 448.89 576.397 443.94 602.56C400.1 619.53 377.472 637.915 343.885 682.817C332.571 672.917 326.914 667.26 317.015 655.946C361.916 622.359 380.301 599.731 398.686 557.305C423.434 550.941 436.162 545.284 451.719 529.728Z" fill="#AC6B2A" stroke="#AC6B2A"/>
<path d="M549.528 469.518C544.578 461.74 538.921 456.083 531.143 451.134C546.699 435.577 552.356 422.849 557.306 396.686C601.146 379.716 623.774 361.331 657.361 316.43C668.675 326.329 674.332 331.986 684.231 343.3C639.33 376.887 620.945 399.515 602.561 441.941C577.812 448.305 565.084 453.962 549.528 469.518Z" fill="#AC6B2A" stroke="#AC6B2A"/>
<path d="M530.728 547.527C538.506 542.577 544.163 536.92 549.112 529.142C564.669 544.699 577.397 550.355 603.56 555.305C620.53 599.146 638.915 621.773 683.816 655.361C673.917 666.675 668.26 672.331 656.946 682.231C623.359 637.33 600.731 618.945 558.305 600.56C551.941 575.811 546.284 563.083 530.728 547.527Z" fill="#AC6B2A" stroke="#AC6B2A"/>
<path d="M556 513C558 504 558 496 556 487C578 487 591 482 613 467C656 486 685 489 740.5 481C741.5 496 741.5 504 740.5 519C685 511 656 514 613 531C591 518 578 513 556 513Z" fill="#AC6B2A" stroke="#AC6B2A"/>
<path d="M280 402.5L449 475C447.872 477.379 447.401 478.689 446.5 481L275.5 413C277.5 408 278 406.5 280 402.5Z" fill="#C57E2E" stroke="#C57E2E"/>
<path d="M276.182 586.501L446.948 518.265C447.833 520.745 448.426 522.005 449.423 524.276L280.425 597.108C278.303 592.158 277.596 590.744 276.182 586.501Z" fill="#C57E2E" stroke="#C57E2E"/>
<path opacity="0.9" d="M403 720L475.5 551C477.879 552.128 479.189 552.599 481.5 553.5L413.5 724.5C408.5 722.5 407 722 403 720Z" fill="#C57E2E" stroke="#C57E2E"/>
<path d="M586.502 725.009L518.266 554.243C520.746 553.358 522.005 552.765 524.276 551.768L597.108 720.766C592.158 722.888 590.744 723.595 586.502 725.009Z" fill="#C57E2E" stroke="#C57E2E"/>
<path d="M412.69 275.182L480.926 445.948C478.446 446.833 477.186 447.426 474.915 448.423L402.083 279.425C407.033 277.303 408.447 276.596 412.69 275.182Z" fill="#C57E2E" stroke="#C57E2E"/>
<path d="M598.5 279.5L526 448.5C523.621 447.372 522.311 446.901 520 446L588 275C593 277 594.5 277.5 598.5 279.5Z" fill="#C57E2E" stroke="#C57E2E"/>
<path d="M726.009 412.69L555.243 480.926C554.358 478.446 553.765 477.186 552.768 474.915L721.767 402.083C723.888 407.033 724.595 408.447 726.009 412.69Z" fill="#C57E2E" stroke="#C57E2E"/>
<path d="M721 596.5L552 524C553.128 521.621 553.599 520.311 554.5 518L725.5 586C723.5 591 723 592.5 721 596.5Z" fill="#C57E2E" stroke="#C57E2E"/>
<path d="M291.563 313.5L315.561 289.5C305.063 284.5 289.56 277 284.061 282C278.563 287 285.099 299.926 291.563 313.5Z" fill="#AC6B2A"/>
<path d="M382.561 246L378.366 236.157C376.867 232.657 379.116 227.424 384.379 221.92C391.995 221.934 397.282 223.955 398.781 227.455L403.062 237.5L382.561 246Z" fill="#C57E2E"/>
<path d="M685.002 289.563L709.002 313.561C714.002 303.063 721.502 287.56 716.502 282.061C711.502 276.563 698.576 283.099 685.002 289.563Z" fill="#AC6B2A"/>
<path d="M752.502 380.561L762.345 376.366C765.845 374.867 771.078 377.116 776.582 382.379C776.567 389.995 774.547 395.282 771.047 396.781L761.002 401.062L752.502 380.561Z" fill="#C57E2E"/>
<path d="M778.844 483.762L778.845 517.702C789.805 513.814 806.07 508.155 806.422 500.731C806.775 493.308 793.014 488.789 778.844 483.762Z" fill="#AC6B2A"/>
<path d="M762.228 595.837L772.155 599.83C775.69 601.245 777.8 606.536 777.97 614.15C772.575 619.525 767.408 621.834 763.873 620.419L753.742 616.344L762.228 595.837Z" fill="#C57E2E"/>
<path d="M710.5 684L686.501 708C697 713 712.502 720.5 718.001 715.5C723.5 710.5 716.964 697.574 710.5 684Z" fill="#AC6B2A"/>
<path d="M619.501 751.5L623.697 761.343C625.196 764.843 622.946 770.076 617.683 775.58C610.068 775.566 604.781 773.545 603.282 770.045L599 760L619.501 751.5Z" fill="#C57E2E"/>
<path d="M517.542 778.842L483.602 778.843C487.49 789.802 493.149 806.068 500.572 806.42C507.996 806.773 512.514 793.011 517.542 778.842Z" fill="#AC6B2A"/>
<path d="M405.466 762.226L401.473 772.153C400.058 775.688 394.768 777.798 387.154 777.968C381.779 772.573 379.47 767.406 380.884 763.871L384.96 753.74L405.466 762.226Z" fill="#C57E2E"/>
<path d="M315.498 707.5L291.498 683.501C286.498 694 278.998 709.502 283.998 715.001C288.998 720.5 301.924 713.964 315.498 707.5Z" fill="#AC6B2A"/>
<path d="M247.998 616.501L238.155 620.697C234.655 622.196 229.422 619.946 223.918 614.683C223.933 607.068 225.953 601.781 229.453 600.282L239.498 596L247.998 616.501Z" fill="#C57E2E"/>
<path d="M222.46 516.542L222.459 482.602C211.5 486.49 195.235 492.149 194.882 499.573C194.53 506.997 208.291 511.515 222.46 516.542Z" fill="#AC6B2A"/>
<path d="M239.076 404.467L229.15 400.474C225.615 399.059 223.505 393.768 223.334 386.154C228.73 380.78 233.897 378.47 237.432 379.885L247.562 383.96L239.076 404.467Z" fill="#C57E2E"/>
<path d="M483.763 220.462L517.703 220.461C513.815 209.502 508.156 193.237 500.732 192.884C493.309 192.531 488.79 206.293 483.763 220.462Z" fill="#AC6B2A"/>
<path d="M595.838 237.078L599.831 227.151C601.246 223.617 606.537 221.507 614.151 221.336C619.526 226.732 621.835 231.899 620.42 235.434L616.345 245.564L595.838 237.078Z" fill="#C57E2E"/>
<path d="M458 222.476C401.325 235.158 374.862 246.984 335.891 275C329.347 243.814 333.661 226.34 351.408 194.643C357.4 183.943 360.469 176.241 362.143 165C371.309 171.765 378.855 175.371 390.998 178.405C427.613 187.551 441.355 197.701 458 222.476Z" fill="#2E8132" stroke="#2E8132"/>
<path d="M665.527 273.03C616.485 241.923 589.411 231.572 542.044 223.826C559.468 197.147 574.874 187.841 609.837 177.978C621.639 174.648 629.256 171.372 638.389 164.607C640.086 175.872 642.872 183.758 649.313 194.489C668.736 226.847 671.276 243.742 665.527 273.03Z" fill="#2E8132" stroke="#2E8132"/>
<path d="M777.524 457C764.842 400.325 753.016 373.862 725 334.891C756.186 328.347 773.66 332.661 805.357 350.408C816.057 356.4 823.759 359.469 835 361.143C828.235 370.309 824.629 377.855 821.595 389.998C812.449 426.613 802.299 440.355 777.524 457Z" fill="#2E8132" stroke="#2E8132"/>
<path d="M726.138 666.528C757.245 617.485 767.596 590.411 775.342 543.044C802.021 560.469 811.327 575.875 821.19 610.837C824.52 622.64 827.796 630.256 834.561 639.389C823.296 641.087 815.41 643.872 804.679 650.314C772.321 669.737 755.426 672.277 726.138 666.528Z" fill="#2E8132" stroke="#2E8132"/>
<path d="M544 776.524C600.675 763.842 627.138 752.016 666.109 724C672.653 755.186 668.339 772.66 650.592 804.357C644.6 815.057 641.531 822.759 639.857 834C630.691 827.235 623.145 823.629 611.002 820.595C574.387 811.449 560.645 801.299 544 776.524Z" fill="#2E8132" stroke="#2E8132"/>
<path d="M336.641 725.14C385.683 756.247 412.757 766.598 460.124 774.344C442.7 801.022 427.294 810.328 392.331 820.192C380.529 823.522 372.912 826.798 363.779 833.562C362.082 822.297 359.296 814.412 352.855 803.68C333.432 771.322 330.892 754.428 336.641 725.14Z" fill="#2E8132" stroke="#2E8132"/>
<path d="M223.476 541C236.158 597.674 247.984 624.138 276 663.109C244.814 669.652 227.34 665.339 195.643 647.591C184.943 641.6 177.241 638.531 166 636.856C172.765 627.69 176.371 620.145 179.405 608.001C188.551 571.387 198.701 557.645 223.476 541Z" fill="#2E8132" stroke="#2E8132"/>
<path d="M275.03 335.642C243.923 384.684 233.572 411.759 225.826 459.126C199.147 441.701 189.841 426.295 179.978 391.332C176.648 379.53 173.372 371.913 166.607 362.781C177.872 361.083 185.758 358.297 196.489 351.856C228.847 332.433 245.742 329.893 275.03 335.642Z" fill="#2E8132" stroke="#2E8132"/>
<path d="M526.5 549.5C573.5 503 514.5 465.5 503.5 500.5C527.5 536.5 479 549 445.5 512C455.5 547 490.5 566.5 526.5 549.5Z" fill="#BEA622" stroke="#BEA622"/>
<path d="M445.501 510.5C437.502 463 484 431 522 448C470.502 441 457.502 500.5 502.502 500.5C526 532.5 483 551 445.501 510.5Z" fill="#FFE86E" stroke="#4BB41D"/>
<path d="M522.998 449C479 436 452.498 498.5 502.998 500C509.999 466.5 576.999 498.5 526.999 549C565.5 530 568.5 469 522.998 449Z" fill="#EDC700" stroke="#EDC700"/>
</svg>
