<svg width="81" height="80" viewBox="0 0 81 80" fill="none" xmlns="http://www.w3.org/2000/svg">
<path d="M75.449 62.0215H5.54849C4.25534 62.0215 3.20703 63.0698 3.20703 64.3629V64.3637C3.20703 65.6569 4.25534 66.7052 5.54849 66.7052H75.449C76.7421 66.7052 77.7905 65.6569 77.7905 64.3637V64.3629C77.7905 63.0698 76.7421 62.0215 75.449 62.0215Z" fill="#4D4C78"/>
<path d="M75.4483 62.0215H6.54297C6.53907 62.0722 6.53907 62.1229 6.53907 62.1737C6.53855 62.4815 6.59874 62.7864 6.71618 63.0709C6.83362 63.3554 7.00601 63.614 7.22348 63.8319C7.44096 64.0497 7.69925 64.2225 7.98359 64.3404C8.26792 64.4584 8.57272 64.519 8.88053 64.519H77.782C77.7859 64.4644 77.7898 64.4137 77.7898 64.3629C77.7898 64.0555 77.7292 63.751 77.6116 63.4669C77.4939 63.1828 77.3214 62.9247 77.104 62.7073C76.8866 62.4899 76.6285 62.3174 76.3444 62.1997C76.0603 62.082 75.7558 62.0215 75.4483 62.0215Z" fill="#323150"/>
<path d="M63.3627 15.386L52.8594 17.238L60.7077 61.7479L71.211 59.8959L63.3627 15.386Z" fill="#67BAEB"/>
<path d="M21.2856 13.2957H9.75V62.1757H21.2856V13.2957Z" fill="#67BAEB"/>
<path d="M51.7309 13.2957H40.1953V62.1757H51.7309V13.2957Z" fill="#F44533"/>
<path d="M40.1953 62.1737H51.7309V13.2957H49.7797V59.9571H40.1953V62.1737Z" fill="#DE3226"/>
<path d="M30.7525 16.6558H21.2852V62.1746H30.7525V16.6558Z" fill="#F4C23F"/>
<path d="M28.2783 16.6558V53.5026C28.2783 57.3621 25.1486 60.4958 21.2852 60.4958V62.1738H30.7525V16.6558H28.2783Z" fill="#F4A93F"/>
<path d="M40.1939 19.6606H30.7266V62.1762H40.1939V19.6606Z" fill="#C8C2E9"/>
<path d="M38.3792 19.6606V53.0226C38.3792 57.2489 34.9529 60.6753 30.7266 60.6753V62.1738H40.1939V19.6606H38.3792Z" fill="#B9B1E0"/>
<path d="M21.2856 21.0029H9.75V24.4016H21.2856V21.0029Z" fill="#4D4C78"/>
<path d="M21.2856 51.0713H9.75V54.4699H21.2856V51.0713Z" fill="#4D4C78"/>
<path d="M26.9899 23.4302H24.6211V56.4897H26.9899V23.4302Z" fill="#F4A93F"/>
<path d="M37.6005 26.4936H33.3235C33.1165 26.4936 32.9179 26.4114 32.7716 26.265C32.6252 26.1186 32.543 25.9201 32.543 25.7131C32.543 25.5061 32.6252 25.3076 32.7716 25.1612C32.9179 25.0148 33.1165 24.9326 33.3235 24.9326H37.6005C37.8075 24.9326 38.0061 25.0148 38.1524 25.1612C38.2988 25.3076 38.381 25.5061 38.381 25.7131C38.381 25.9201 38.2988 26.1186 38.1524 26.265C38.0061 26.4114 37.8075 26.4936 37.6005 26.4936Z" fill="#4D4C78"/>
<path d="M37.6005 30.447H33.3235C33.1165 30.447 32.9179 30.3647 32.7716 30.2184C32.6252 30.072 32.543 29.8735 32.543 29.6665C32.543 29.4595 32.6252 29.261 32.7716 29.1146C32.9179 28.9682 33.1165 28.886 33.3235 28.886H37.6005C37.8075 28.886 38.0061 28.9682 38.1524 29.1146C38.2988 29.261 38.381 29.4595 38.381 29.6665C38.381 29.8735 38.2988 30.072 38.1524 30.2184C38.0061 30.3647 37.8075 30.447 37.6005 30.447Z" fill="#4D4C78"/>
<path d="M37.6005 34.3962H33.3235C33.1165 34.3962 32.9179 34.3139 32.7716 34.1676C32.6252 34.0212 32.543 33.8227 32.543 33.6157C32.543 33.4087 32.6252 33.2102 32.7716 33.0638C32.9179 32.9174 33.1165 32.8352 33.3235 32.8352H37.6005C37.8075 32.8352 38.0061 32.9174 38.1524 33.0638C38.2988 33.2102 38.381 33.4087 38.381 33.6157C38.381 33.8227 38.2988 34.0212 38.1524 34.1676C38.0061 34.3139 37.8075 34.3962 37.6005 34.3962Z" fill="#4D4C78"/>
<path d="M36.8637 58.0917H34.0539C33.8469 58.0917 33.6484 58.0095 33.502 57.8631C33.3557 57.7168 33.2734 57.5182 33.2734 57.3112C33.2734 57.1043 33.3557 56.9057 33.502 56.7594C33.6484 56.613 33.8469 56.5308 34.0539 56.5308H36.8637C37.0707 56.5308 37.2692 56.613 37.4156 56.7594C37.5619 56.9057 37.6442 57.1043 37.6442 57.3112C37.6442 57.5182 37.5619 57.7168 37.4156 57.8631C37.2692 58.0095 37.0707 58.0917 36.8637 58.0917Z" fill="#4D4C78"/>
<path d="M43.8274 54.7005C43.6207 54.6995 43.4228 54.6169 43.2766 54.4708C43.1305 54.3246 43.0479 54.1267 43.0469 53.92V21.5532C43.0469 21.3462 43.1291 21.1477 43.2755 21.0013C43.4218 20.8549 43.6204 20.7727 43.8274 20.7727C44.0344 20.7727 44.2329 20.8549 44.3792 21.0013C44.5256 21.1477 44.6079 21.3462 44.6079 21.5532V53.92C44.6079 54.0225 44.5877 54.124 44.5484 54.2187C44.5092 54.3134 44.4517 54.3994 44.3792 54.4719C44.3068 54.5444 44.2207 54.6019 44.126 54.6411C44.0313 54.6803 43.9299 54.7005 43.8274 54.7005Z" fill="#B11A31"/>
<path d="M48.093 54.7005C47.886 54.7005 47.6875 54.6183 47.5411 54.4719C47.3947 54.3255 47.3125 54.127 47.3125 53.92V21.5532C47.3125 21.3462 47.3947 21.1477 47.5411 21.0013C47.6875 20.8549 47.886 20.7727 48.093 20.7727C48.3 20.7727 48.4985 20.8549 48.6449 21.0013C48.7912 21.1477 48.8735 21.3462 48.8735 21.5532V53.92C48.8724 54.1267 48.7899 54.3246 48.6437 54.4708C48.4976 54.6169 48.2997 54.6995 48.093 54.7005Z" fill="#B11A31"/>
<path d="M70.2007 53.9434L59.6992 55.8048L59.9724 57.3424L70.4739 55.4809L70.2007 53.9434Z" fill="#4D4C78"/>
<path d="M64.1322 19.7437L53.6289 21.5957L53.9 23.133L64.4033 21.2809L64.1322 19.7437Z" fill="#4D4C78"/>
<path d="M66.1418 31.0088L65.8687 29.4751L55.3672 31.3327L55.6404 32.8702L66.1418 31.0088Z" fill="#4D4C78"/>
<path d="M68.7434 45.7055L68.4702 44.168L57.9648 46.0294L58.238 47.567L68.7434 45.7055Z" fill="#4D4C78"/>
<path opacity="0.1" d="M17.9529 51.4849V13.2957H21.2856V62.1737H9.75V59.6879C14.2807 59.6879 17.9529 56.0157 17.9529 51.4849Z" fill="#323150"/>
<path opacity="0.1" d="M63.3682 15.3367L60.695 15.8128L66.8882 50.8098C67.6218 54.9464 64.8628 58.8957 60.7223 59.6255L60.3867 59.6879L60.7418 61.7016L71.2472 59.844L63.3682 15.3367Z" fill="#323150"/>
<path d="M12.2788 29.3894C12.2788 28.6911 11.7127 28.125 11.0144 28.125C10.3161 28.125 9.75 28.6911 9.75 29.3894V47.3391C9.75 48.0374 10.3161 48.6034 11.0144 48.6034C11.7127 48.6034 12.2788 48.0374 12.2788 47.3391V29.3894Z" fill="#83D0FB"/>
<g opacity="0.2">
<path d="M57.6053 27.1996C57.4702 26.4334 56.7395 25.9218 55.9733 26.0569C55.2071 26.192 54.6955 26.9227 54.8306 27.6889L58.2994 47.3616C58.4345 48.1278 59.1652 48.6395 59.9314 48.5043C60.6976 48.3692 61.2093 47.6386 61.0742 46.8723L57.6053 27.1996Z" fill="white"/>
<path d="M59.7084 48.5034C59.3726 48.5029 59.0477 48.3841 58.7908 48.1679C58.5339 47.9516 58.3614 47.6518 58.3036 47.321L54.8226 27.6488C54.7567 27.2762 54.8414 26.8928 55.0579 26.5826C55.2745 26.2724 55.6053 26.0607 55.9777 25.9942C56.3513 25.9283 56.7357 26.0134 57.0467 26.2307C57.3576 26.448 57.5697 26.7797 57.6363 27.1532L61.1172 46.8254C61.1831 47.1979 61.0984 47.5814 60.8819 47.8916C60.6653 48.2018 60.3345 48.4134 59.9621 48.48C59.8784 48.4955 59.7935 48.5034 59.7084 48.5034ZM56.2275 26.0137C56.1463 26.0139 56.0653 26.0218 55.9855 26.0371C55.8062 26.0686 55.6348 26.1353 55.4813 26.2333C55.3278 26.3313 55.1952 26.4586 55.0911 26.6081C54.9871 26.7575 54.9135 26.926 54.8748 27.1039C54.8361 27.2819 54.8329 27.4657 54.8655 27.6449L58.3465 47.3132C58.4112 47.6752 58.6168 47.9967 58.9181 48.2074C59.2195 48.4181 59.5921 48.5007 59.9543 48.4371C60.1333 48.4055 60.3042 48.339 60.4574 48.2412C60.6106 48.1435 60.7431 48.0165 60.8471 47.8675C60.9511 47.7185 61.0248 47.5505 61.0637 47.373C61.1027 47.1955 61.1063 47.0121 61.0743 46.8332L57.5933 27.161C57.5365 26.8398 57.3686 26.5489 57.1189 26.3392C56.8691 26.1294 56.5536 26.0142 56.2275 26.0137Z" fill="#231F20"/>
</g>
<path d="M12.2788 15.7346C12.2788 15.0363 11.7127 14.4702 11.0144 14.4702C10.3161 14.4702 9.75 15.0363 9.75 15.7346V18.4331C9.75 19.1314 10.3161 19.6975 11.0144 19.6975C11.7127 19.6975 12.2788 19.1314 12.2788 18.4331V15.7346Z" fill="#83D0FB"/>
<path d="M23.1817 18.3882C23.1817 17.8645 22.7572 17.4399 22.2334 17.4399C21.7097 17.4399 21.2852 17.8645 21.2852 18.3882V39.3791C21.2852 39.9028 21.7097 40.3274 22.2334 40.3274C22.7572 40.3274 23.1817 39.9028 23.1817 39.3791V18.3882Z" fill="#FAD564"/>
<path d="M31.6358 36.9795H31.6319C31.1319 36.9795 30.7266 37.3848 30.7266 37.8849V49.0189C30.7266 49.5189 31.1319 49.9243 31.6319 49.9243H31.6358C32.1359 49.9243 32.5412 49.5189 32.5412 49.0189V37.8849C32.5412 37.3848 32.1359 36.9795 31.6358 36.9795Z" fill="#DFDAFD"/>
<path d="M34.711 19.6606H31.4758C31.062 19.6606 30.7266 19.9961 30.7266 20.4099V21.1408C30.7266 21.5546 31.062 21.8901 31.4758 21.8901H34.711C35.1248 21.8901 35.4602 21.5546 35.4602 21.1408V20.4099C35.4602 19.9961 35.1248 19.6606 34.711 19.6606Z" fill="#DFDAFD"/>
<path d="M40.9563 19.6606H40.9524C40.5343 19.6606 40.1953 19.9996 40.1953 20.4177V48.3732C40.1953 48.7914 40.5343 49.1303 40.9524 49.1303H40.9563C41.3744 49.1303 41.7134 48.7914 41.7134 48.3732V20.4177C41.7134 19.9996 41.3744 19.6606 40.9563 19.6606Z" fill="#F46253"/>
</svg>
